<mxfile host="app.diagrams.net" modified="2022-05-04T08:10:36.770Z" agent="5.0 (Windows NT 10.0; Win64; x64) AppleWebKit/537.36 (KHTML, like Gecko) Chrome/86.0.4240.198 Safari/537.36" etag="MEz_Y6Nbz5tehXxv4-g4" version="17.4.6" type="github">
  <diagram id="sToUNFsGSEGtENM93Ggs" name="Page-1">
    <mxGraphModel dx="1117" dy="679" grid="1" gridSize="10" guides="1" tooltips="1" connect="1" arrows="1" fold="1" page="1" pageScale="1" pageWidth="827" pageHeight="1169" math="0" shadow="0">
      <root>
        <mxCell id="0" />
        <mxCell id="1" parent="0" />
        <mxCell id="CeryBH38kut4belS2bYQ-3" value="收货报表" style="strokeWidth=2;html=1;shape=mxgraph.flowchart.document2;whiteSpace=wrap;size=0.25;" vertex="1" parent="1">
          <mxGeometry x="459.75" y="860" width="100" height="60" as="geometry" />
        </mxCell>
        <mxCell id="CeryBH38kut4belS2bYQ-5" value="厂家资料" style="strokeWidth=2;html=1;shape=mxgraph.flowchart.document2;whiteSpace=wrap;size=0.25;" vertex="1" parent="1">
          <mxGeometry x="740" y="555" width="100" height="60" as="geometry" />
        </mxCell>
        <mxCell id="CeryBH38kut4belS2bYQ-27" style="edgeStyle=orthogonalEdgeStyle;rounded=0;orthogonalLoop=1;jettySize=auto;html=1;entryX=0.5;entryY=0;entryDx=0;entryDy=0;entryPerimeter=0;" edge="1" parent="1" source="CeryBH38kut4belS2bYQ-6" target="CeryBH38kut4belS2bYQ-5">
          <mxGeometry relative="1" as="geometry" />
        </mxCell>
        <mxCell id="CeryBH38kut4belS2bYQ-6" value="&lt;font style=&quot;vertical-align: inherit&quot;&gt;&lt;font style=&quot;vertical-align: inherit&quot;&gt;货品资料&lt;/font&gt;&lt;/font&gt;" style="strokeWidth=2;html=1;shape=mxgraph.flowchart.document2;whiteSpace=wrap;size=0.25;" vertex="1" parent="1">
          <mxGeometry x="740" y="410" width="100" height="60" as="geometry" />
        </mxCell>
        <mxCell id="CeryBH38kut4belS2bYQ-24" style="edgeStyle=orthogonalEdgeStyle;rounded=0;orthogonalLoop=1;jettySize=auto;html=1;startArrow=none;" edge="1" parent="1" source="CeryBH38kut4belS2bYQ-25" target="CeryBH38kut4belS2bYQ-3">
          <mxGeometry relative="1" as="geometry">
            <Array as="points">
              <mxPoint x="510" y="830" />
              <mxPoint x="510" y="830" />
            </Array>
          </mxGeometry>
        </mxCell>
        <mxCell id="CeryBH38kut4belS2bYQ-7" value="&lt;p class=&quot;MsoNormal&quot;&gt;&lt;b&gt;&lt;span style=&quot;font-size: 10.5pt&quot;&gt;&lt;font face=&quot;宋体&quot;&gt;&lt;font style=&quot;vertical-align: inherit&quot;&gt;&lt;font style=&quot;vertical-align: inherit&quot;&gt;货品验收单&lt;/font&gt;&lt;/font&gt;&lt;/font&gt;&lt;/span&gt;&lt;/b&gt;&lt;/p&gt;" style="strokeWidth=2;html=1;shape=mxgraph.flowchart.document2;whiteSpace=wrap;size=0.25;" vertex="1" parent="1">
          <mxGeometry x="459.75" y="690" width="100" height="60" as="geometry" />
        </mxCell>
        <mxCell id="CeryBH38kut4belS2bYQ-34" value="" style="edgeStyle=orthogonalEdgeStyle;rounded=0;orthogonalLoop=1;jettySize=auto;html=1;" edge="1" parent="1" source="CeryBH38kut4belS2bYQ-9" target="CeryBH38kut4belS2bYQ-33">
          <mxGeometry relative="1" as="geometry" />
        </mxCell>
        <mxCell id="CeryBH38kut4belS2bYQ-39" style="edgeStyle=orthogonalEdgeStyle;rounded=0;orthogonalLoop=1;jettySize=auto;html=1;exitX=0.5;exitY=1;exitDx=0;exitDy=0;exitPerimeter=0;entryX=0;entryY=0.75;entryDx=0;entryDy=0;" edge="1" parent="1" source="CeryBH38kut4belS2bYQ-9" target="CeryBH38kut4belS2bYQ-36">
          <mxGeometry relative="1" as="geometry">
            <Array as="points">
              <mxPoint x="238" y="960" />
              <mxPoint x="600" y="960" />
              <mxPoint x="600" y="880" />
            </Array>
          </mxGeometry>
        </mxCell>
        <mxCell id="CeryBH38kut4belS2bYQ-9" value="&lt;span style=&quot;font-size: 14px&quot;&gt;&lt;b&gt;&lt;font style=&quot;vertical-align: inherit&quot;&gt;&lt;font style=&quot;vertical-align: inherit&quot;&gt;库管科&lt;/font&gt;&lt;/font&gt;&lt;/b&gt;&lt;/span&gt;" style="strokeWidth=2;html=1;shape=mxgraph.flowchart.start_2;whiteSpace=wrap;" vertex="1" parent="1">
          <mxGeometry x="200" y="750" width="76" height="80" as="geometry" />
        </mxCell>
        <mxCell id="CeryBH38kut4belS2bYQ-13" value="" style="edgeStyle=orthogonalEdgeStyle;rounded=0;orthogonalLoop=1;jettySize=auto;html=1;" edge="1" parent="1" source="CeryBH38kut4belS2bYQ-11" target="CeryBH38kut4belS2bYQ-12">
          <mxGeometry relative="1" as="geometry" />
        </mxCell>
        <mxCell id="CeryBH38kut4belS2bYQ-11" value="&lt;font style=&quot;vertical-align: inherit&quot;&gt;&lt;font style=&quot;vertical-align: inherit&quot;&gt;采购部&lt;/font&gt;&lt;/font&gt;" style="strokeWidth=2;html=1;shape=mxgraph.flowchart.start_2;whiteSpace=wrap;" vertex="1" parent="1">
          <mxGeometry x="348" y="450" width="66" height="70" as="geometry" />
        </mxCell>
        <mxCell id="CeryBH38kut4belS2bYQ-15" value="" style="edgeStyle=orthogonalEdgeStyle;rounded=0;orthogonalLoop=1;jettySize=auto;html=1;" edge="1" parent="1" source="CeryBH38kut4belS2bYQ-12" target="CeryBH38kut4belS2bYQ-14">
          <mxGeometry relative="1" as="geometry" />
        </mxCell>
        <mxCell id="CeryBH38kut4belS2bYQ-12" value="&lt;font style=&quot;vertical-align: inherit&quot;&gt;&lt;font style=&quot;vertical-align: inherit&quot;&gt;采购&lt;/font&gt;&lt;/font&gt;" style="whiteSpace=wrap;html=1;strokeWidth=2;" vertex="1" parent="1">
          <mxGeometry x="470" y="457.5" width="73" height="55" as="geometry" />
        </mxCell>
        <mxCell id="CeryBH38kut4belS2bYQ-18" value="" style="edgeStyle=orthogonalEdgeStyle;rounded=0;orthogonalLoop=1;jettySize=auto;html=1;" edge="1" parent="1" source="CeryBH38kut4belS2bYQ-14" target="CeryBH38kut4belS2bYQ-17">
          <mxGeometry relative="1" as="geometry" />
        </mxCell>
        <mxCell id="CeryBH38kut4belS2bYQ-21" style="edgeStyle=orthogonalEdgeStyle;rounded=0;orthogonalLoop=1;jettySize=auto;html=1;entryX=0.5;entryY=0;entryDx=0;entryDy=0;entryPerimeter=0;" edge="1" parent="1" source="CeryBH38kut4belS2bYQ-14" target="CeryBH38kut4belS2bYQ-7">
          <mxGeometry relative="1" as="geometry" />
        </mxCell>
        <mxCell id="CeryBH38kut4belS2bYQ-14" value="&lt;p class=&quot;MsoNormal&quot;&gt;&lt;span style=&quot;font-size: 10.5000pt&quot;&gt;&lt;font face=&quot;宋体&quot;&gt;&lt;font style=&quot;vertical-align: inherit&quot;&gt;&lt;font style=&quot;vertical-align: inherit&quot;&gt;定货单&lt;/font&gt;&lt;/font&gt;&lt;/font&gt;&lt;/span&gt;&lt;/p&gt;" style="shape=document;whiteSpace=wrap;html=1;boundedLbl=1;strokeWidth=2;" vertex="1" parent="1">
          <mxGeometry x="459.75" y="585" width="93.5" height="50" as="geometry" />
        </mxCell>
        <mxCell id="CeryBH38kut4belS2bYQ-19" style="edgeStyle=orthogonalEdgeStyle;rounded=0;orthogonalLoop=1;jettySize=auto;html=1;exitX=0.75;exitY=0;exitDx=0;exitDy=0;entryX=0;entryY=0.5;entryDx=0;entryDy=0;entryPerimeter=0;" edge="1" parent="1" source="CeryBH38kut4belS2bYQ-17" target="CeryBH38kut4belS2bYQ-6">
          <mxGeometry relative="1" as="geometry">
            <Array as="points">
              <mxPoint x="655" y="440" />
            </Array>
          </mxGeometry>
        </mxCell>
        <mxCell id="CeryBH38kut4belS2bYQ-20" value="&lt;font style=&quot;vertical-align: inherit&quot;&gt;&lt;font style=&quot;vertical-align: inherit&quot;&gt;更新&lt;/font&gt;&lt;/font&gt;" style="edgeLabel;html=1;align=center;verticalAlign=middle;resizable=0;points=[];" vertex="1" connectable="0" parent="CeryBH38kut4belS2bYQ-19">
          <mxGeometry x="-0.1412" y="-4" relative="1" as="geometry">
            <mxPoint as="offset" />
          </mxGeometry>
        </mxCell>
        <mxCell id="CeryBH38kut4belS2bYQ-17" value="&lt;font style=&quot;vertical-align: inherit&quot;&gt;&lt;font style=&quot;vertical-align: inherit&quot;&gt;记录&lt;/font&gt;&lt;/font&gt;" style="whiteSpace=wrap;html=1;strokeWidth=2;" vertex="1" parent="1">
          <mxGeometry x="610" y="585" width="60" height="50" as="geometry" />
        </mxCell>
        <mxCell id="CeryBH38kut4belS2bYQ-25" value="&lt;font style=&quot;vertical-align: inherit&quot;&gt;&lt;font style=&quot;vertical-align: inherit&quot;&gt;生成&lt;/font&gt;&lt;/font&gt;" style="text;html=1;resizable=0;autosize=1;align=center;verticalAlign=middle;points=[];fillColor=none;strokeColor=none;rounded=0;" vertex="1" parent="1">
          <mxGeometry x="489.75" y="800" width="40" height="20" as="geometry" />
        </mxCell>
        <mxCell id="CeryBH38kut4belS2bYQ-26" value="" style="edgeStyle=orthogonalEdgeStyle;rounded=0;orthogonalLoop=1;jettySize=auto;html=1;endArrow=none;" edge="1" parent="1" source="CeryBH38kut4belS2bYQ-7" target="CeryBH38kut4belS2bYQ-25">
          <mxGeometry relative="1" as="geometry">
            <mxPoint x="509.8571428571429" y="750" as="sourcePoint" />
            <mxPoint x="509.8571428571429" y="860" as="targetPoint" />
            <Array as="points" />
          </mxGeometry>
        </mxCell>
        <mxCell id="CeryBH38kut4belS2bYQ-28" value="&lt;font style=&quot;vertical-align: inherit&quot;&gt;&lt;font style=&quot;vertical-align: inherit&quot;&gt;&lt;font style=&quot;vertical-align: inherit&quot;&gt;&lt;font style=&quot;vertical-align: inherit&quot;&gt;&lt;font style=&quot;vertical-align: inherit&quot;&gt;&lt;font style=&quot;vertical-align: inherit&quot;&gt;更新&lt;/font&gt;&lt;/font&gt;&lt;/font&gt;&lt;/font&gt;&lt;/font&gt;&lt;/font&gt;" style="text;html=1;resizable=0;autosize=1;align=center;verticalAlign=middle;points=[];fillColor=none;strokeColor=none;rounded=0;" vertex="1" parent="1">
          <mxGeometry x="770" y="510" width="40" height="20" as="geometry" />
        </mxCell>
        <mxCell id="CeryBH38kut4belS2bYQ-31" style="edgeStyle=orthogonalEdgeStyle;rounded=0;orthogonalLoop=1;jettySize=auto;html=1;exitX=0.5;exitY=0;exitDx=0;exitDy=0;" edge="1" parent="1" source="CeryBH38kut4belS2bYQ-30">
          <mxGeometry relative="1" as="geometry">
            <mxPoint x="710" y="440" as="targetPoint" />
            <Array as="points">
              <mxPoint x="710" y="780" />
            </Array>
          </mxGeometry>
        </mxCell>
        <mxCell id="CeryBH38kut4belS2bYQ-32" value="&lt;font style=&quot;vertical-align: inherit&quot;&gt;&lt;font style=&quot;vertical-align: inherit&quot;&gt;更新&lt;/font&gt;&lt;/font&gt;" style="edgeLabel;html=1;align=center;verticalAlign=middle;resizable=0;points=[];" vertex="1" connectable="0" parent="CeryBH38kut4belS2bYQ-31">
          <mxGeometry x="-0.2499" y="2" relative="1" as="geometry">
            <mxPoint y="1" as="offset" />
          </mxGeometry>
        </mxCell>
        <mxCell id="CeryBH38kut4belS2bYQ-35" style="edgeStyle=orthogonalEdgeStyle;rounded=0;orthogonalLoop=1;jettySize=auto;html=1;exitX=1;exitY=0.5;exitDx=0;exitDy=0;entryX=0;entryY=0.5;entryDx=0;entryDy=0;entryPerimeter=0;" edge="1" parent="1" source="CeryBH38kut4belS2bYQ-33" target="CeryBH38kut4belS2bYQ-7">
          <mxGeometry relative="1" as="geometry" />
        </mxCell>
        <mxCell id="CeryBH38kut4belS2bYQ-33" value="&lt;font style=&quot;vertical-align: inherit&quot;&gt;&lt;font style=&quot;vertical-align: inherit&quot;&gt;收货&lt;/font&gt;&lt;/font&gt;" style="whiteSpace=wrap;html=1;strokeWidth=2;" vertex="1" parent="1">
          <mxGeometry x="334" y="760" width="66" height="50" as="geometry" />
        </mxCell>
        <mxCell id="CeryBH38kut4belS2bYQ-40" style="edgeStyle=orthogonalEdgeStyle;rounded=0;orthogonalLoop=1;jettySize=auto;html=1;exitX=1;exitY=0.5;exitDx=0;exitDy=0;" edge="1" parent="1" source="CeryBH38kut4belS2bYQ-36">
          <mxGeometry relative="1" as="geometry">
            <mxPoint x="710" y="710" as="targetPoint" />
            <Array as="points">
              <mxPoint x="800" y="880" />
              <mxPoint x="800" y="730" />
              <mxPoint x="710" y="730" />
            </Array>
          </mxGeometry>
        </mxCell>
        <mxCell id="CeryBH38kut4belS2bYQ-36" value="&lt;font style=&quot;vertical-align: inherit&quot;&gt;&lt;font style=&quot;vertical-align: inherit&quot;&gt;货品丢失&lt;/font&gt;&lt;/font&gt;" style="rounded=0;whiteSpace=wrap;html=1;" vertex="1" parent="1">
          <mxGeometry x="680" y="860" width="90" height="40" as="geometry" />
        </mxCell>
        <mxCell id="CeryBH38kut4belS2bYQ-30" value="&lt;font style=&quot;vertical-align: inherit&quot;&gt;&lt;font style=&quot;vertical-align: inherit&quot;&gt;货品的转移&lt;/font&gt;&lt;/font&gt;" style="rounded=0;whiteSpace=wrap;html=1;" vertex="1" parent="1">
          <mxGeometry x="680" y="780" width="80" height="50" as="geometry" />
        </mxCell>
        <mxCell id="CeryBH38kut4belS2bYQ-37" value="" style="edgeStyle=orthogonalEdgeStyle;rounded=0;orthogonalLoop=1;jettySize=auto;html=1;exitX=0.5;exitY=1;exitDx=0;exitDy=0;exitPerimeter=0;endArrow=none;" edge="1" parent="1" source="CeryBH38kut4belS2bYQ-9" target="CeryBH38kut4belS2bYQ-30">
          <mxGeometry relative="1" as="geometry">
            <mxPoint x="730" y="800" as="targetPoint" />
            <mxPoint x="238" y="830" as="sourcePoint" />
            <Array as="points">
              <mxPoint x="238" y="960" />
              <mxPoint x="600" y="960" />
              <mxPoint x="600" y="805" />
            </Array>
          </mxGeometry>
        </mxCell>
        <mxCell id="CeryBH38kut4belS2bYQ-43" style="edgeStyle=orthogonalEdgeStyle;rounded=0;orthogonalLoop=1;jettySize=auto;html=1;exitX=1;exitY=0.5;exitDx=0;exitDy=0;" edge="1" parent="1" source="CeryBH38kut4belS2bYQ-41">
          <mxGeometry relative="1" as="geometry">
            <mxPoint x="800" y="880" as="targetPoint" />
          </mxGeometry>
        </mxCell>
        <mxCell id="CeryBH38kut4belS2bYQ-41" value="&lt;p class=&quot;MsoNormal&quot;&gt;&lt;font face=&quot;宋体&quot;&gt;&lt;span style=&quot;font-size: 14px&quot;&gt;&lt;font style=&quot;vertical-align: inherit&quot;&gt;&lt;font style=&quot;vertical-align: inherit&quot;&gt;货品出货&lt;/font&gt;&lt;/font&gt;&lt;/span&gt;&lt;/font&gt;&lt;/p&gt;" style="rounded=0;whiteSpace=wrap;html=1;" vertex="1" parent="1">
          <mxGeometry x="680" y="920" width="90" height="40" as="geometry" />
        </mxCell>
        <mxCell id="CeryBH38kut4belS2bYQ-42" value="" style="endArrow=classic;html=1;rounded=0;entryX=0;entryY=0.5;entryDx=0;entryDy=0;" edge="1" parent="1" target="CeryBH38kut4belS2bYQ-41">
          <mxGeometry width="50" height="50" relative="1" as="geometry">
            <mxPoint x="600" y="960" as="sourcePoint" />
            <mxPoint x="650" y="910" as="targetPoint" />
            <Array as="points">
              <mxPoint x="620" y="940" />
            </Array>
          </mxGeometry>
        </mxCell>
        <mxCell id="CeryBH38kut4belS2bYQ-46" style="edgeStyle=orthogonalEdgeStyle;rounded=0;orthogonalLoop=1;jettySize=auto;html=1;exitX=1;exitY=0.25;exitDx=0;exitDy=0;" edge="1" parent="1" source="CeryBH38kut4belS2bYQ-44">
          <mxGeometry relative="1" as="geometry">
            <mxPoint x="800" y="940" as="targetPoint" />
          </mxGeometry>
        </mxCell>
        <mxCell id="CeryBH38kut4belS2bYQ-44" value="&lt;p class=&quot;MsoNormal&quot;&gt;&lt;span style=&quot;font-size: 10.5000pt&quot;&gt;&lt;font face=&quot;宋体&quot;&gt;&lt;font style=&quot;vertical-align: inherit&quot;&gt;&lt;font style=&quot;vertical-align: inherit&quot;&gt;货品盘点及存货修改&lt;/font&gt;&lt;/font&gt;&lt;/font&gt;&lt;/span&gt;&lt;/p&gt;" style="rounded=0;whiteSpace=wrap;html=1;" vertex="1" parent="1">
          <mxGeometry x="680" y="980" width="90" height="40" as="geometry" />
        </mxCell>
        <mxCell id="CeryBH38kut4belS2bYQ-45" value="" style="endArrow=classic;html=1;rounded=0;entryX=0;entryY=0.5;entryDx=0;entryDy=0;" edge="1" parent="1">
          <mxGeometry width="50" height="50" relative="1" as="geometry">
            <mxPoint x="600" y="960" as="sourcePoint" />
            <mxPoint x="680" y="1000" as="targetPoint" />
            <Array as="points">
              <mxPoint x="620" y="1000" />
            </Array>
          </mxGeometry>
        </mxCell>
        <mxCell id="CeryBH38kut4belS2bYQ-49" style="edgeStyle=orthogonalEdgeStyle;rounded=0;orthogonalLoop=1;jettySize=auto;html=1;exitX=1;exitY=0.25;exitDx=0;exitDy=0;entryX=1;entryY=0.5;entryDx=0;entryDy=0;entryPerimeter=0;" edge="1" parent="1" source="CeryBH38kut4belS2bYQ-47" target="CeryBH38kut4belS2bYQ-6">
          <mxGeometry relative="1" as="geometry">
            <mxPoint x="800" y="980" as="targetPoint" />
          </mxGeometry>
        </mxCell>
        <mxCell id="CeryBH38kut4belS2bYQ-47" value="&lt;p class=&quot;MsoNormal&quot; style=&quot;margin-bottom: 0.0000pt&quot;&gt;&lt;span style=&quot;font-size: 10.5000pt&quot;&gt;&lt;font face=&quot;宋体&quot;&gt;存货查询&lt;/font&gt;&lt;/span&gt;&lt;span style=&quot;font-size: 10.5000pt&quot;&gt;&lt;/span&gt;&lt;/p&gt;" style="rounded=0;whiteSpace=wrap;html=1;" vertex="1" parent="1">
          <mxGeometry x="680" y="1030" width="90" height="40" as="geometry" />
        </mxCell>
        <mxCell id="CeryBH38kut4belS2bYQ-48" value="" style="endArrow=classic;html=1;rounded=0;entryX=0;entryY=0.5;entryDx=0;entryDy=0;" edge="1" parent="1">
          <mxGeometry width="50" height="50" relative="1" as="geometry">
            <mxPoint x="600" y="960" as="sourcePoint" />
            <mxPoint x="680" y="1040" as="targetPoint" />
            <Array as="points">
              <mxPoint x="620" y="1040" />
              <mxPoint x="650" y="1040" />
            </Array>
          </mxGeometry>
        </mxCell>
      </root>
    </mxGraphModel>
  </diagram>
</mxfile>
